<?xml version="1.0" encoding="UTF-8" standalone="no"?>
<svg
   width="23"
   height="23"
   viewBox="0 0 23 23"
   fill="none"
   version="1.1"
   id="svg1941"
   sodipodi:docname="apple.svg"
   inkscape:export-filename="apple.svg"
   inkscape:export-xdpi="96"
   inkscape:export-ydpi="96"
   inkscape:version="1.2.2 (b0a8486541, 2022-12-01)"
   xmlns:inkscape="http://www.inkscape.org/namespaces/inkscape"
   xmlns:sodipodi="http://sodipodi.sourceforge.net/DTD/sodipodi-0.dtd"
   xmlns="http://www.w3.org/2000/svg"
   xmlns:svg="http://www.w3.org/2000/svg">
  <defs
     id="defs1945" />
  <sodipodi:namedview
     id="namedview1943"
     pagecolor="#505050"
     bordercolor="#eeeeee"
     borderopacity="1"
     inkscape:showpageshadow="0"
     inkscape:pageopacity="0"
     inkscape:pagecheckerboard="0"
     inkscape:deskcolor="#505050"
     showgrid="false"
     inkscape:zoom="22.326087"
     inkscape:cx="0.67185979"
     inkscape:cy="15.228822"
     inkscape:window-width="2552"
     inkscape:window-height="1339"
     inkscape:window-x="1084"
     inkscape:window-y="1140"
     inkscape:window-maximized="0"
     inkscape:current-layer="svg1941" />
  <path
     d="m 16.6015,5.5563166 c -2.1236,-0.13953 -3.9243,1.0581 -4.9292,1.0581 -1.01922,0 -2.5912598,-1.02791 -4.2590798,-1.00067 -2.18839,0.03019 -4.20587,1.13506 -5.33412,2.88457 -2.27383997,3.5199704 -0.58043,8.7343704 1.63397,11.5886704 1.08325,1.3972 2.37457,2.9689 4.07169,2.9115 1.63397,-0.0571 2.2511398,-0.9433 4.2252398,-0.9433 1.9729,0 2.5298,0.9433 4.2571,0.9135 1.7574,-0.0277 2.8716,-1.4223 3.9466,-2.8272 1.2447,-1.6188 1.7557,-3.1861 1.7863,-3.2711 -0.0392,-0.0122 -3.4269,-1.1734 -3.4607,-4.6536 -0.0306,-2.9088804 2.6631,-4.3086404 2.7861,-4.3760104 -1.5295,-2.0076 -3.8921,-2.22923 -4.7239,-2.28446 z m -1.3107,-1.88573 c 0.9016,-0.97048 1.5088,-2.3257 1.3416,-3.670600020003 C 15.3345,0.04490258 13.765,0.77129058 12.8344,1.7414066 c -0.8339,0.86076 -1.5662,2.23807 -1.3676,3.55793 1.4477,0.09941 2.9228,-0.65607 3.824,-1.62875 z"
     fill="#000000"
     id="path1939" />
</svg>
