<?xml version="1.0" encoding="UTF-8" standalone="no"?>
<svg
   width="32"
   height="32"
   viewBox="0 0 32 32"
   fill="none"
   version="1.1"
   id="svg32"
   sodipodi:docname="appleHealth.svg"
   inkscape:version="1.2.2 (b0a8486541, 2022-12-01)"
   xmlns:inkscape="http://www.inkscape.org/namespaces/inkscape"
   xmlns:sodipodi="http://sodipodi.sourceforge.net/DTD/sodipodi-0.dtd"
   xmlns="http://www.w3.org/2000/svg"
   xmlns:svg="http://www.w3.org/2000/svg">
  <sodipodi:namedview
     id="namedview34"
     pagecolor="#505050"
     bordercolor="#eeeeee"
     borderopacity="1"
     inkscape:showpageshadow="0"
     inkscape:pageopacity="0"
     inkscape:pagecheckerboard="0"
     inkscape:deskcolor="#505050"
     showgrid="false"
     inkscape:zoom="32"
     inkscape:cx="16.4375"
     inkscape:cy="17.0625"
     inkscape:window-width="2552"
     inkscape:window-height="1339"
     inkscape:window-x="1084"
     inkscape:window-y="1140"
     inkscape:window-maximized="0"
     inkscape:current-layer="svg32" />
  <path
     d="m 19.6267,0 c 2.4,0 3.6,0 4.9066,0.4 1.4134,0.506667 2.5334,1.62667 3.04,3.04 C 28,4.74667 28,5.97333 28,8.37333 v 7.25337 c 0,2.4 0,3.6 -0.4,4.9066 -0.5067,1.4134 -1.6267,2.5334 -3.04,3.04 C 23.2267,24 22.0267,24 19.6267,24 H 12.3733 C 9.97333,24 8.77333,24 7.46667,23.6 6.02667,23.0667 4.93333,21.9733 4.4,20.5333 4,19.2533 4,18.0533 4,15.6267 V 8.37333 c 0,-2.4 0,-3.6 0.4,-4.90666 C 4.93333,2.05333 6.02667,0.933333 7.46667,0.426667 8.74667,-3.17891e-8 9.94667,0 12.3733,0 Z"
     fill="#ffffff"
     id="path2"
     style="filter:url(#filter0_d_464_111)"
     clip-path="url(#clipPath360)"
     transform="translate(-0.47673416,3.5890655)"
     inkscape:export-filename="appleHealth.svg"
     inkscape:export-xdpi="96"
     inkscape:export-ydpi="96" />
  <path
     d="m 24.138818,7.2597801 c 0,-1.81333 -1.3867,-3.2 -2.9867,-3.2 -1.12,0 -2.0266,0.37333 -2.5866,1.2 -0.56,-0.82667 -1.4667,-1.2 -2.4,-1.2 -1.8134,0 -3.2,1.38667 -3.2,3.2 0,-0.08 0,-0.05333 0,0 0,2.69333 2.5866,5.4132999 5.6,6.5866999 2.3466,-0.7734 5.5733,-3.8933699 5.5733,-6.5866999 0,-0.05333 0,-0.08 0,0 z"
     fill="url(#paint0_linear_464_111)"
     id="path4"
     style="fill:url(#paint0_linear_464_111);filter:url(#filter0_d_464_111)"
     clip-path="url(#clipPath582)"
     transform="translate(-0.42885208,3.5292854)" />
  <defs
     id="defs30">
    <filter
       id="filter0_d_464_111"
       x="0"
       y="0"
       width="32"
       height="32"
       filterUnits="userSpaceOnUse"
       color-interpolation-filters="sRGB">
      <feFlood
         flood-opacity="0"
         result="BackgroundImageFix"
         id="feFlood8" />
      <feColorMatrix
         in="SourceAlpha"
         type="matrix"
         values="0 0 0 0 0 0 0 0 0 0 0 0 0 0 0 0 0 0 127 0"
         result="hardAlpha"
         id="feColorMatrix10" />
      <feOffset
         dy="4"
         id="feOffset12" />
      <feGaussianBlur
         stdDeviation="2"
         id="feGaussianBlur14" />
      <feComposite
         in2="hardAlpha"
         operator="out"
         id="feComposite16" />
      <feColorMatrix
         type="matrix"
         values="0 0 0 0 0 0 0 0 0 0 0 0 0 0 0 0 0 0 0.1 0"
         id="feColorMatrix18" />
      <feBlend
         mode="normal"
         in2="BackgroundImageFix"
         result="effect1_dropShadow_464_111"
         id="feBlend20" />
      <feBlend
         mode="normal"
         in="SourceGraphic"
         in2="effect1_dropShadow_464_111"
         result="shape"
         id="feBlend22" />
    </filter>
    <linearGradient
       id="paint0_linear_464_111"
       x1="18.5947"
       y1="4.00677"
       x2="18.5947"
       y2="13.8035"
       gradientUnits="userSpaceOnUse"
       gradientTransform="translate(-0.04788208,0.05978012)">
      <stop
         stop-color="#FF61AD"
         id="stop25" />
      <stop
         offset="1"
         stop-color="#FF2719"
         id="stop27" />
    </linearGradient>
    <clipPath
       clipPathUnits="userSpaceOnUse"
       id="clipPath1340">
      <rect
         style="font-variation-settings:'wght' 508;fill:#000000;fill-opacity:0;stroke-width:1.11244;stroke-linecap:round;stroke-linejoin:round"
         id="rect1342"
         width="24.11282"
         height="24.082081"
         x="3.9636652"
         y="-0.029478643"
         ry="0.99851" />
    </clipPath>
    <clipPath
       clipPathUnits="userSpaceOnUse"
       id="clipPath360">
      <rect
         style="font-variation-settings:'wght' 508;fill:#001313;fill-opacity:0.174752;stroke-width:7.2027;stroke-linecap:round;stroke-linejoin:round"
         id="rect362"
         width="23.984133"
         height="23.996128"
         x="4.006022"
         y="0.00078105927"
         ry="5.4992828" />
    </clipPath>
    <clipPath
       clipPathUnits="userSpaceOnUse"
       id="clipPath582">
      <path
         d="m 19.6267,0 c 2.4,0 3.6,0 4.9066,0.4 1.4134,0.506667 2.5334,1.62667 3.04,3.04 C 28,4.74667 28,5.97333 28,8.37333 v 7.25337 c 0,2.4 0,3.6 -0.4,4.9066 -0.5067,1.4134 -1.6267,2.5334 -3.04,3.04 C 23.2267,24 22.0267,24 19.6267,24 H 12.3733 C 9.97333,24 8.77333,24 7.46667,23.6 6.02667,23.0667 4.93333,21.9733 4.4,20.5333 4,19.2533 4,18.0533 4,15.6267 V 8.37333 c 0,-2.4 0,-3.6 0.4,-4.90666 C 4.93333,2.05333 6.02667,0.933333 7.46667,0.426667 8.74667,-3.17891e-8 9.94667,0 12.3733,0 Z"
         fill="#ffffff"
         id="path584"
         style="filter:url(#filter0_d_464_111)"
         clip-path="url(#clipPath360)"
         transform="translate(-0.04788208,0.05978012)" />
    </clipPath>
  </defs>
</svg>
