<svg width="21" height="21" viewBox="0 0 21 21" fill="none" xmlns="http://www.w3.org/2000/svg">
<path fill-rule="evenodd" clip-rule="evenodd" d="M9 0C8.60218 0 8.22064 0.158035 7.93934 0.43934C7.65804 0.720644 7.5 1.10218 7.5 1.5C7.5 1.89782 7.65804 2.27936 7.93934 2.56066C8.22064 2.84196 8.60218 3 9 3C9.39782 3 9.77936 2.84196 10.0607 2.56066C10.342 2.27936 10.5 1.89782 10.5 1.5C10.5 1.10218 10.342 0.720644 10.0607 0.43934C9.77936 0.158035 9.39782 0 9 0ZM9.002 4.25C8.60471 4.25 8.22368 4.40804 7.94275 4.68934C7.66182 4.97064 7.504 5.35218 7.504 5.75C7.504 6.14782 7.66182 6.52936 7.94275 6.81066C8.22368 7.09196 8.60471 7.25 9.002 7.25C9.39929 7.25 9.78032 7.09196 10.0612 6.81066C10.3422 6.52936 10.5 6.14782 10.5 5.75C10.5 5.35218 10.3422 4.97064 10.0612 4.68934C9.78032 4.40804 9.39929 4.25 9.002 4.25ZM13.7475 8.75C13.284 8.75 12.8396 8.93437 12.5118 9.26256C12.1841 9.59075 12 10.0359 12 10.5C12 10.9641 12.1841 11.4092 12.5118 11.7374C12.8396 12.0656 13.284 12.25 13.7475 12.25C14.211 12.25 14.6554 12.0656 14.9832 11.7374C15.3109 11.4092 15.495 10.9641 15.495 10.5C15.495 10.0359 15.3109 9.59075 14.9832 9.26256C14.6554 8.93437 14.211 8.75 13.7475 8.75ZM19.0035 8.501C18.7413 8.501 18.4817 8.55272 18.2395 8.6532C17.9972 8.75369 17.7772 8.90097 17.5918 9.08664C17.4064 9.27231 17.2593 9.49273 17.159 9.73532C17.0586 9.97792 17.007 10.2379 17.007 10.5005C17.007 10.7631 17.0586 11.0231 17.159 11.2657C17.2593 11.5083 17.4064 11.7287 17.5918 11.9144C17.7772 12.1 17.9972 12.2473 18.2395 12.3478C18.4817 12.4483 18.7413 12.5 19.0035 12.5C19.2657 12.5 19.5253 12.4483 19.7675 12.3478C20.0098 12.2473 20.2298 12.1 20.4152 11.9144C20.6006 11.7287 20.7477 11.5083 20.848 11.2657C20.9484 11.0231 21 10.7631 21 10.5005C21 10.2379 20.9484 9.97792 20.848 9.73532C20.7477 9.49273 20.6006 9.27231 20.4152 9.08664C20.2298 8.90097 20.0098 8.75369 19.7675 8.6532C19.5253 8.55272 19.2657 8.501 19.0035 8.501ZM13.7525 4C13.523 4 13.2958 4.04526 13.0838 4.13321C12.8717 4.22116 12.6791 4.35006 12.5168 4.51256C12.3546 4.67507 12.2258 4.86798 12.138 5.0803C12.0502 5.29262 12.005 5.52019 12.005 5.75C12.005 5.97981 12.0502 6.20738 12.138 6.4197C12.2258 6.63202 12.3546 6.82493 12.5168 6.98744C12.6791 7.14994 12.8717 7.27884 13.0838 7.36679C13.2958 7.45473 13.523 7.5 13.7525 7.5C13.982 7.5 14.2092 7.45473 14.4212 7.36679C14.6333 7.27884 14.8259 7.14994 14.9882 6.98744C15.1504 6.82493 15.2792 6.63202 15.367 6.4197C15.4548 6.20738 15.5 5.97981 15.5 5.75C15.5 5.52019 15.4548 5.29262 15.367 5.0803C15.2792 4.86798 15.1504 4.67507 14.9882 4.51256C14.8259 4.35006 14.6333 4.22116 14.4212 4.13321C14.2092 4.04526 13.982 4 13.7525 4ZM13.7525 13.5C13.289 13.5 12.8446 13.6844 12.5168 14.0126C12.1891 14.3408 12.005 14.7859 12.005 15.25C12.005 15.7141 12.1891 16.1592 12.5168 16.4874C12.8446 16.8156 13.289 17 13.7525 17C14.216 17 14.6604 16.8156 14.9882 16.4874C15.3159 16.1592 15.5 15.7141 15.5 15.25C15.5 14.7859 15.3159 14.3408 14.9882 14.0126C14.6604 13.6844 14.216 13.5 13.7525 13.5ZM8.998 13.75C8.60071 13.75 8.21968 13.908 7.93875 14.1893C7.65782 14.4706 7.5 14.8522 7.5 15.25C7.5 15.6478 7.65782 16.0294 7.93875 16.3107C8.21968 16.592 8.60071 16.75 8.998 16.75C9.39529 16.75 9.77632 16.592 10.0572 16.3107C10.3382 16.0294 10.496 15.6478 10.496 15.25C10.496 14.8522 10.3382 14.4706 10.0572 14.1893C9.77632 13.908 9.39529 13.75 8.998 13.75ZM8.999 17.982C8.60078 17.982 8.21886 18.141 7.93728 18.424C7.65569 18.707 7.4975 19.0908 7.4975 19.491C7.4975 19.8912 7.65569 20.275 7.93728 20.558C8.21886 20.841 8.60078 21 8.999 21C9.39722 21 9.77913 20.841 10.0607 20.558C10.3423 20.275 10.5005 19.8912 10.5005 19.491C10.5005 19.0908 10.3423 18.707 10.0607 18.424C9.77913 18.141 9.39722 17.982 8.999 17.982ZM9.002 8.982C8.60471 8.982 8.22368 9.14004 7.94275 9.42134C7.66182 9.70264 7.504 10.0842 7.504 10.482C7.504 10.8798 7.66182 11.2614 7.94275 11.5427C8.22368 11.824 8.60471 11.982 9.002 11.982C9.39929 11.982 9.78032 11.824 10.0612 11.5427C10.3422 11.2614 10.5 10.8798 10.5 10.482C10.5 10.0842 10.3422 9.70264 10.0612 9.42134C9.78032 9.14004 9.39929 8.982 9.002 8.982ZM4.75 9.25C4.41848 9.25 4.10054 9.3817 3.86612 9.61612C3.6317 9.85054 3.5 10.1685 3.5 10.5C3.5 10.8315 3.6317 11.1495 3.86612 11.3839C4.10054 11.6183 4.41848 11.75 4.75 11.75C5.08152 11.75 5.39946 11.6183 5.63388 11.3839C5.8683 11.1495 6 10.8315 6 10.5C6 10.1685 5.8683 9.85054 5.63388 9.61612C5.39946 9.3817 5.08152 9.25 4.75 9.25ZM4.75 14C4.41848 14 4.10054 14.1317 3.86612 14.3661C3.6317 14.6005 3.5 14.9185 3.5 15.25C3.5 15.5815 3.6317 15.8995 3.86612 16.1339C4.10054 16.3683 4.41848 16.5 4.75 16.5C5.08152 16.5 5.39946 16.3683 5.63388 16.1339C5.8683 15.8995 6 15.5815 6 15.25C6 14.9185 5.8683 14.6005 5.63388 14.3661C5.39946 14.1317 5.08152 14 4.75 14ZM4.75 4.5C4.41848 4.5 4.10054 4.6317 3.86612 4.86612C3.6317 5.10054 3.5 5.41848 3.5 5.75C3.5 6.08152 3.6317 6.39946 3.86612 6.63388C4.10054 6.8683 4.41848 7 4.75 7C5.08152 7 5.39946 6.8683 5.63388 6.63388C5.8683 6.39946 6 6.08152 6 5.75C6 5.41848 5.8683 5.10054 5.63388 4.86612C5.39946 4.6317 5.08152 4.5 4.75 4.5ZM1 9.5C0.734784 9.5 0.48043 9.60536 0.292893 9.79289C0.105357 9.98043 0 10.2348 0 10.5C0 10.7652 0.105357 11.0196 0.292893 11.2071C0.48043 11.3946 0.734784 11.5 1 11.5C1.26522 11.5 1.51957 11.3946 1.70711 11.2071C1.89464 11.0196 2 10.7652 2 10.5C2 10.2348 1.89464 9.98043 1.70711 9.79289C1.51957 9.60536 1.26522 9.5 1 9.5Z" fill="#00BCD6"/>
</svg>
